<svg width="234" height="140" viewBox="0 0 234 140" fill="none" xmlns="http://www.w3.org/2000/svg">
<g clip-path="url(#clip0_108_386)">
<path d="M96.0231 100.088L135.789 60.3219V21.5577C135.789 13.0679 130.71 5.48138 122.858 2.22899C115.142 -0.967884 105.971 0.873227 100.077 6.76311L6.13226 100.708C2.17602 104.655 0 109.906 0 115.498C0 121.09 2.17602 126.341 6.13226 130.284C10.0789 134.23 15.3307 136.406 20.9179 136.406C26.5051 136.406 31.761 134.23 35.7172 130.284L89.0616 76.9432C89.6067 76.3934 90.3386 76.1045 91.0842 76.1045C91.4526 76.1045 91.8251 76.1743 92.1791 76.3188C93.2507 76.7617 93.945 77.8053 93.945 78.9652V102.615C94.616 101.758 95.2411 100.87 96.0231 100.088Z" fill="#6042F8"/>
<path d="M220.909 1.56278C213.164 -1.64782 204.008 0.197471 198.104 6.09691L100.068 104.133C96.1213 108.085 93.9453 113.34 93.9453 118.928C93.9453 124.515 96.1213 129.771 100.068 133.722C104.019 137.674 109.275 139.85 114.863 139.85C120.45 139.85 125.71 137.674 129.662 133.722L187.098 76.286C187.643 75.7362 188.375 75.4472 189.121 75.4472C189.489 75.4472 189.862 75.5171 190.216 75.6615C191.287 76.1045 191.981 77.148 191.981 78.308V118.927C191.981 130.464 201.366 139.849 212.904 139.849C224.441 139.849 233.821 130.464 233.821 118.927V20.8915C233.821 12.3969 228.752 4.81099 220.909 1.56278Z" fill="#6042F8"/>
</g>
<defs>
<clipPath id="clip0_108_386">
<rect width="233.821" height="139.85" fill="white"/>
</clipPath>
</defs>
</svg>
