<svg width="current" height="current" viewBox="0 0 16 10" fill="none" xmlns="http://www.w3.org/2000/svg">
<g clip-path="url(#clip0_166_948)">
<path d="M6.57074 7.06396L9.29186 4.34284V1.69027C9.29186 1.10933 8.9443 0.590196 8.40703 0.36764C7.87899 0.148884 7.25148 0.274868 6.84812 0.677903L0.419651 7.10641C0.148932 7.37647 3.05176e-05 7.7358 3.05176e-05 8.11845C3.05176e-05 8.5011 0.148932 8.86042 0.419651 9.1302C0.689717 9.40027 1.04908 9.54917 1.43141 9.54917C1.81373 9.54917 2.17338 9.40027 2.4441 9.1302L6.09438 5.48022C6.13167 5.44259 6.18176 5.42282 6.23278 5.42282C6.25798 5.42282 6.28347 5.4276 6.3077 5.43748C6.38103 5.4678 6.42854 5.5392 6.42854 5.61858V7.23693C6.47445 7.17822 6.51722 7.11748 6.57074 7.06396Z" fill="#6042F8"/>
<path d="M15.1165 0.322057C14.5865 0.102361 13.96 0.228631 13.556 0.63232L6.84753 7.34078C6.57746 7.61117 6.42856 7.97082 6.42856 8.35314C6.42856 8.73547 6.57746 9.09512 6.84753 9.36551C7.11792 9.6359 7.47757 9.78481 7.85989 9.78481C8.24222 9.78481 8.60219 9.6359 8.87259 9.36551L12.8029 5.43525C12.8402 5.39762 12.8902 5.37785 12.9413 5.37785C12.9665 5.37785 12.992 5.38263 13.0162 5.39252C13.0895 5.42283 13.137 5.49423 13.137 5.57361V8.3531C13.137 9.14259 13.7792 9.78477 14.5687 9.78477C15.3582 9.78477 16.0001 9.14259 16.0001 8.3531V1.64469C16.0001 1.06342 15.6531 0.544327 15.1165 0.322057Z" fill="#6042F8"/>
</g>
<defs>
<clipPath id="clip0_166_948">
<rect width="16" height="9.5697" fill="white" transform="translate(0 0.215118)"/>
</clipPath>
</defs>
</svg>
