<svg width="current" height="current" viewBox="0 0 30 30" fill="none" xmlns="http://www.w3.org/2000/svg">
<path d="M26.9129 18.0872L24.375 15.5493V12.1875C24.372 9.86433 23.5077 7.62479 21.9492 5.90193C20.3907 4.17907 18.2487 3.09528 15.9375 2.86013V0.9375H14.0625V2.86013C11.7513 3.09528 9.6093 4.17907 8.05081 5.90193C6.49232 7.62479 5.62801 9.86433 5.625 12.1875V15.5493L3.08709 18.0872C2.9113 18.263 2.81253 18.5014 2.8125 18.75V21.5625C2.8125 21.8111 2.91127 22.0496 3.08709 22.2254C3.2629 22.4012 3.50136 22.5 3.75 22.5H10.3125V23.2283C10.2922 24.4175 10.7114 25.5725 11.4899 26.4719C12.2684 27.3712 13.3513 27.9517 14.5312 28.102C15.1829 28.1667 15.841 28.0943 16.463 27.8893C17.085 27.6844 17.6572 27.3516 18.1429 26.9123C18.6286 26.4729 19.0169 25.9368 19.2829 25.3383C19.5489 24.7399 19.6867 24.0924 19.6875 23.4375V22.5H26.25C26.4986 22.5 26.7371 22.4012 26.9129 22.2254C27.0887 22.0496 27.1875 21.8111 27.1875 21.5625V18.75C27.1875 18.5014 27.0887 18.263 26.9129 18.0872ZM17.8125 23.4375C17.8125 24.1834 17.5162 24.8988 16.9887 25.4262C16.4613 25.9537 15.7459 26.25 15 26.25C14.2541 26.25 13.5387 25.9537 13.0113 25.4262C12.4838 24.8988 12.1875 24.1834 12.1875 23.4375V22.5H17.8125V23.4375ZM25.3125 20.625H4.6875V19.1382L7.22531 16.6003C7.40114 16.4245 7.49995 16.1861 7.5 15.9375V12.1875C7.5 10.1984 8.29018 8.29072 9.6967 6.8842C11.1032 5.47768 13.0109 4.6875 15 4.6875C16.9891 4.6875 18.8968 5.47768 20.3033 6.8842C21.7098 8.29072 22.5 10.1984 22.5 12.1875V15.9375C22.5001 16.1861 22.5989 16.4245 22.7747 16.6003L25.3125 19.1382V20.625Z" fill="currentColor"/>
</svg>
