<svg width="current" height="current" viewBox="0 0 30 30" fill="none" xmlns="http://www.w3.org/2000/svg">
<path d="M15 29.4C7.05935 29.4 0.599976 22.9406 0.599976 15C0.599976 7.05935 7.05935 0.599976 15 0.599976C22.9406 0.599976 29.4 7.05935 29.4 15C29.4 22.9406 22.9406 29.4 15 29.4ZM5.95216 25.3125C8.36998 27.4369 11.5369 28.725 15 28.725C18.4622 28.725 21.63 27.4369 24.0469 25.3125H24.0375C24.0375 21.2428 21.2803 17.6615 17.3315 16.6031C17.1965 16.5675 17.099 16.4531 17.0831 16.3153C17.0662 16.1784 17.1375 16.0444 17.2594 15.9797C18.8325 15.1387 19.8094 13.5094 19.8094 11.729C19.8094 9.06654 17.6475 6.89998 14.9906 6.89998C12.3337 6.89998 10.1709 9.06654 10.1709 11.729C10.1709 13.5094 11.1478 15.1387 12.7209 15.9797C12.8428 16.0444 12.9131 16.1784 12.8972 16.3153C12.8812 16.4522 12.7828 16.5675 12.6497 16.6031C8.71123 17.6578 5.96248 21.239 5.96248 25.3125H5.95216ZM18.2203 16.1719C21.8887 17.4628 24.4509 20.834 24.6937 24.7069C27.1828 22.2215 28.725 18.7875 28.725 15C28.725 7.43154 22.5684 1.27498 15 1.27498C7.43154 1.27498 1.27498 7.43154 1.27498 15C1.27498 18.7875 2.81716 22.2215 5.30623 24.7069C5.5481 20.8303 8.10185 17.4609 11.759 16.1719C10.3472 15.1462 9.49498 13.5037 9.49498 11.729C9.49498 8.69435 11.9597 6.22498 14.9887 6.22498C18.0187 6.22498 20.4834 8.69341 20.4834 11.729C20.4844 13.5037 19.6322 15.1462 18.2203 16.1719Z" fill="currentColor"/>
</svg>
